<svg id="图层_1" data-name="图层 1" xmlns="http://www.w3.org/2000/svg" viewBox="0 0 614.47 615.08"><defs><style>.cls-1{fill:#0836bf;}</style></defs><path class="cls-1" d="M490.52,204.46c191.61.12,323.79,135.41,328.57,296.34,5.42,182.88-137.54,311.69-291.52,318.4C438,823.1,360.15,793.63,296.2,730.79,238.92,674.51,208.2,605.1,205,524.9c-3.42-86.81,25.07-162.92,85.29-225.75S425.22,205.45,490.52,204.46ZM511.76,800.4c158.07-.22,286.22-127,288.32-284.58C802.27,351.49,666.78,218.15,502,223.66c-148.81,5-277.61,126.24-278,287.68C223.51,673,354.07,799.92,511.76,800.4Z" transform="translate(-204.77 -204.46)"/><path class="cls-1" d="M511.91,684.75c-94.93,1-173.73-78.19-172.74-174.56A172.6,172.6,0,0,1,514.37,339C610.5,340,681.64,417,684.78,505.41,688.37,606.89,606.13,686.06,511.91,684.75Zm.16-328.81c-83-.88-157.53,68-156,159A156.09,156.09,0,0,0,512.45,668.11c88.27-.07,160.67-75.21,155.3-165.57C663,421.74,595,355.46,512.07,355.94Z" transform="translate(-204.77 -204.46)"/><path class="cls-1" d="M479.93,760.43c.64,4.3,1.55,8.58,1.81,12.9.13,2.08-.44,5.67-1.58,6.08-2.87,1-4.66-1.17-5.6-4.14-1.18-3.76-2.8-7.39-4.66-12.18l-11.32,4.76c-.9-4.42-1.74-8.5-2.57-12.59l-1.92-.46c-.81,1.92-2.21,3.81-2.32,5.78-.31,5.75-.11,11.53-.11,17.84-7.13-4.29-2.72-11.56-4.92-17.94-2.09,1.53-4,2.87-5.83,4.29-2.35,1.81-5.18,3.7-7.34.75-1.91-2.62-3.14-5.79-.33-9.44,5.78-7.49,11-15.42,16.35-23.22.39-.57.26-1.5.57-3.58-3.66,2.2-6.45,3.78-9.13,5.53-4.09,2.67-7.84.6-8.24-4.77.64-.09,1.28-.18,1.92-.29,9.48-1.53,18.14-3.24,20.36-15.42,1.05-5.77,5.74-10.87,8.77-16.26,9.45,5.21,9.73,18,1.71,24.27a13.77,13.77,0,0,1-4.75,2.7c-6.2,1.56-8,5.87-7.91,11.62.06,5.23,0,10.47,0,15.77,9.91-1.89,15.06-9.38,20.39-16.69L468.1,740,463,736.13c3.27-1.73,6.21-2.79,8.49-4.64a16.62,16.62,0,0,0,5.1-6.55c1.61-4.32,2.13-9,3.5-13.46,1-3.21,3.06-5.56,5.81-4.94,2.37,4.31,4.18,7.87,6.25,11.28,2.84,4.65,3,7.11-1.82,9.45-9.4,4.6-8.78,12.56-8.63,20.68,9,2,12.54,9.48,16.84,15.93.89,1.32-.48,4.15-.8,6.28-1.63-.4-3.54-.4-4.82-1.29a87.44,87.44,0,0,1-7-6.08c-1.28-1.12-2.59-2.21-3.88-3.31ZM464.85,704c-5.5,4.67-9.34,13.53-8.54,19.25C465.65,719.85,470.35,709.63,464.85,704Z" transform="translate(-204.77 -204.46)"/><path class="cls-1" d="M691.46,697.74c-5.19,7.84-9.81,15.25-15,22.25-1.26,1.71-4.35,2.06-6.59,3l-1.26-1.63c.88-1.8,1.49-3.81,2.68-5.38,3.92-5.17,8.12-10.13,12.08-15.28,1.22-1.59,2-3.51,3.64-6.46l-7.39,2.36c-1-5.52-1.93-10.69-2.94-15.84-.54-2.77-.88-5.66-2-8.17a6.49,6.49,0,0,0-4.24-3.38c-1.14-.15-3.41,1.75-3.75,3.1-1.87,7.38-3.47,14.85-4.72,22.36-.23,1.37,1.5,3.14,2.48,4.63,1.9,2.88,1.16,4.78-2.23,5.08a27.16,27.16,0,0,1-5.48-.16c-3.8-.46-6.22-1.73-6.35-6.53-.16-6.23-1.56-12.44-2.45-18.85-.56-.09-1.26-.42-1.81-.24-3.8,1.2-6.75,4.82-11.77,1-3.72-2.8-6.1-5.71-7.39-9.86-.35-1.11-.71-3.11-.24-3.4a7.13,7.13,0,0,1,4.11-.79c.87,0,1.61,1.23,2.52,1.47,1.34.35,3.22.89,4.07.26a4.35,4.35,0,0,0,1-3.93c-1-3.1.68-4.3,2.7-6.13a37.44,37.44,0,0,0,7.41-9.09c3.68-6.52,16.24-11,22.65-7.43.82.46,1.62,2.78,1.21,3.33-1.65,2.21-3.84,4-5.69,6.08a12.84,12.84,0,0,0-2.28,3.51c-1.18,2.8-2.25,5.67-3.19,8.56-1.72,5.31-3.52,10.62-4.8,16-.37,1.55.9,3.5,2.62,5.29,2-4.47,3.74-9.14,6.25-13.33,1.37-2.27,3.9-4.76,6.31-5.29,3.6-.78,4.82,2.75,5.61,5.72,1.44,5.39,2.67,10.84,4.24,16.18.4,1.36,1.92,3.54,2.69,3.44,2.27-.28,4.88-1,6.48-2.51s2.37-4.33,3.61-6.49c2.4-4.15,5.9-6.63,11.49-6.95-1.16,3.52-1.62,7.09-3.4,9.78s-5,4.79-7.84,7.37l6.87,7.68c4.17,4.68,4.25,8.37.27,13.32-.83,1-1.77,2-2.61,3-5.62,6.85-8.66,8.12-19.17,7.61a42.93,42.93,0,0,1,3.46-4.9c2.84-3,6-5.78,8.76-8.91S696.17,702.45,691.46,697.74Zm-41.79-22.65c.49-3.82,1-7,1.25-10.27.06-.78-.84-2.34-1.3-2.34-3,0-5.9.31-8.85.53.94,3.29,1.48,6.79,3,9.77C644.44,674,647.21,674.2,649.67,675.09Z" transform="translate(-204.77 -204.46)"/><path class="cls-1" d="M561.34,742.38l-8.23,3.74c-1-2.52-1.84-4.76-2.83-7.32,1.58-.67,2.73-1.25,3.93-1.66,9.47-3.17,9.42-3.16,9.49-12.88.08-9.48.2-19,.5-28.42.08-2.42.38-5.14,1.59-7.11,1-1.55,3.45-2.15,5.26-3.18,1,1.87,2.58,3.67,2.78,5.62,1.23,11.52,2.12,23.07,3.17,34.61a22.15,22.15,0,0,0,.86,3.34c8-1.89,11.21-5.2,9.27-10.52l16.23,2c0,.61,0,1.22,0,1.83-6.36,2.7-12.73,5.35-19.06,8.11-4.67,2-8.07,4.73-7.8,10.78.39,8.76.67,9.67,9.24,12,6.18,1.66,12.07,4,18.89,3.45A12,12,0,0,1,616.37,764c-3.14,3.25-5.47,6.36-8.47,8.55-2.76,2-12.19.12-14.84-2.51-3.31-3.28-6.5-6.68-9.62-10.14a45.56,45.56,0,0,1-3.33-4.73l-1.36,1.23c-.19,3.73-.22,7.47-.62,11.17-.79,7.23-4.06,9-10.85,6.2-4.95-2.08-9.94-4.07-14.76-6.41-1.55-.75-3.91-2.9-3.65-3.67a7.86,7.86,0,0,1,4-4.39c5.95-2.42,7.64-7.45,8.75-13C561.79,745.47,561.5,744.47,561.34,742.38Z" transform="translate(-204.77 -204.46)"/><path class="cls-1" d="M397.89,672.79l13.32,5.82c-2.9,1.62-4.36,3-6,3.25-4.52.73-9.13.91-13.68,1.49-1.53.2-3.34.6-4.33,1.6-.49.5.26,2.77,1,3.85,2.17,3.1,4.62,6,7.07,9.14-6.27,4.28-13.13,1.63-19.64,1.53-5.66-.09-11.29-1.41-15.73-2-3.07-2.05-5.27-4.25-7.91-5.15-5.66-1.92-8.89-7.72-6.18-12.94.5-1,3.13-1.55,4.5-1.21,2.36.6,4.51,2,6.73,3.19s4.3,2.85,6.25-.52c1.71-3,3.59-5.6.91-9.07a34.31,34.31,0,0,1-4.85-8c-.63-1.58-.42-4.8.55-5.38,1.47-.88,4.05-.5,5.93.08,1.45.44,2.61,1.94,3.82,3.06,4,3.65,5.94,3.75,9.78,0a62.84,62.84,0,0,0,4.37-5l19.57,6.92Z" transform="translate(-204.77 -204.46)"/><path class="cls-1" d="M495.9,290.43l14.44,28.16-8.5.75c-3.7-7.29-7.25-14.6-11.1-21.74-2.52-4.66-3.65-5-9.44-3.91.75,7.45,1.54,15,2.26,22.5.28,3,.43,6.1-4,5.28a4,4,0,0,1-2.65-2.59c-2.18-20.93-4.19-41.89-6.3-63.57,7-.5,13.86-1.35,20.73-1.31a9.22,9.22,0,0,1,6.49,3.72c5.24,7.95,5.92,16.85,3.13,25.78C500.08,286.26,497.39,288.46,495.9,290.43ZM480.22,283c3.38-.29,5.86-.38,8.3-.73,3.53-.49,6.51-1.85,6.72-6s.76-9.32-3.76-10.93c-3.53-1.25-8,.07-12,.37-.31,0-.82,1.08-.77,1.62C479.12,272.43,479.66,277.5,480.22,283Z" transform="translate(-204.77 -204.46)"/><path class="cls-1" d="M366.05,386l-4.29,4.65-48.31-45.73c2.15-4.21,4.62-5.47,9.35-3.15,11.49,5.64,23.26,10.69,34.93,16a3,3,0,0,0,2.81-.11l-31.4-29.88,4.2-4.76,48.33,45.79c-2.24,4.78-5,5.5-9.62,3.22-10.43-5.15-21.15-9.72-31.77-14.51a8.32,8.32,0,0,0-5.09-.82Z" transform="translate(-204.77 -204.46)"/><path class="cls-1" d="M256.82,464.74c.06-4.86,1.39-6.9,6.37-7.13,11.92-.53,23.79-2,35.68-3.12a8.8,8.8,0,0,0,4.94-2.08L262,442.1l1.37-6,64.7,15.77c-.45,2.21-.84,4.11-1.36,6.63l-44.53,4.4L282,464.4l40.56,10.1c-.5,2.15-.94,4-1.41,6Z" transform="translate(-204.77 -204.46)"/><path class="cls-1" d="M746.12,517.17l-42.37-2.67c.28-2.13.51-3.84.78-5.86,9.94.45,19.56.82,29.17,1.35,10.63.57,21.25,1.19,31.85,2,1.87.15,4.93,1.33,5.2,2.54.64,2.88-1,4.89-4.4,5.78-11.91,3.1-23.72,6.59-35.56,9.95a6.83,6.83,0,0,0-4,2.64l42.69,2.69c-.1,1.86-.19,3.56-.32,6L703,537.87c-1.08-4.59-.06-7.23,5.09-8.51,11.29-2.8,22.43-6.23,33.62-9.43,1.53-.43,3-1,4.52-1.54C746.19,518,746.16,517.58,746.12,517.17Z" transform="translate(-204.77 -204.46)"/><path class="cls-1" d="M420.34,268.8l25.85-8.28,3.4,10.14L430.18,277c1.63,5.06,3.1,9.6,4.75,14.7l17.83-5.5c1.08,3.29,2.1,6.35,3.3,10l-17.83,6.08c1.91,6,3.68,11.67,5.61,17.78l19.93-6.17c1.11,3.36,2.18,6.57,3.38,10.17l-26.58,8.44C433.83,311.28,427.16,290.29,420.34,268.8Z" transform="translate(-204.77 -204.46)"/><path class="cls-1" d="M517.56,298.1l7-1.28c.31,2.14.45,4.07.91,5.91.9,3.63,2.07,7.18,6.5,7.88,4.14.66,6.73-1.53,8.12-5.11,1.51-3.9,1.9-7.93-1.77-11-2-1.68-4.51-2.82-6.75-4.25-10.58-6.77-12.21-26.13-2.94-34.7,5-4.67,14.79-3.85,17.87,2.22,2.3,4.52,3,9.86,4.6,15.52H543.2c-.24-1.36-.43-2.65-.71-3.91-.68-3.15-2.16-6.13-5.67-5.86-2.27.17-5.76,1.72-6.29,3.4a12.09,12.09,0,0,0,1.18,8.56c1.16,2.07,4.14,3.17,6.39,4.56,11.83,7.31,13.61,29.62,3.08,38.75-5.95,5.15-16.53,3.52-19.59-3.73C519.41,309.93,518.9,304.06,517.56,298.1Z" transform="translate(-204.77 -204.46)"/><path class="cls-1" d="M695.64,455.56l-1.73-6.6,64.24-16.74c.73,2.14,1.34,3.95,2.19,6.46l-25.7,6.94c1.33,5.15,2.57,9.9,4,15.25l25.59-6.49c.57,2.27,1.05,4.15,1.68,6.62l-64.41,16.77c-.65-2.37-1.18-4.26-1.82-6.58l28.46-7.62c-1.34-5.19-2.57-9.94-4-15.29Z" transform="translate(-204.77 -204.46)"/><path class="cls-1" d="M762.11,577.56c-.73,2.69-1.34,4.91-2.05,7.53l-67.58-3.77c.52-6.92,1-7.33,7-6.85,9.92.79,9.92.79,12.53-8.69.48-1.74,1-3.47,1.55-5.58l-13.83-7.35c.69-2.38,1.33-4.56,2.08-7.1Zm-17.78-.2.35-1.33-21.17-10.85c-1,3.67-1.93,6.91-3,10.84Z" transform="translate(-204.77 -204.46)"/><path class="cls-1" d="M294,370.92l3.6-5.81c2.61,1.56,5,3,7.36,4.42,10.51,6.42,21.09,12.75,31.5,19.34a53.24,53.24,0,0,1,9.31,7.47c5,5,5.72,10.39,2.76,15.85-3.19,5.88-8,8-15.2,6.59a15.86,15.86,0,0,1-4.74-1.47c-15.45-8.78-30.84-17.65-46.51-26.65l3.77-6.33,21.38,12.9c5.71,3.44,11.35,7,17.16,10.25,2.27,1.28,5,2.74,7.38,2.61a10.13,10.13,0,0,0,6.91-3.51c1.05-1.43.77-5.14-.41-6.65a32.46,32.46,0,0,0-8.34-6.95c-10-6.28-20.19-12.32-30.28-18.47C297.78,373.41,296,372.23,294,370.92Z" transform="translate(-204.77 -204.46)"/><path class="cls-1" d="M728.41,412.26c1.43-1.36,3.16-2.29,3.71-3.69,1.06-2.72,2.78-6.35,1.77-8.41s-5.19-4.41-7.61-4.06c-12.63,1.85-23.83,7.25-32.47,16.82-1.6,1.77-2.3,6.05-1.26,8s4.69,3.27,7.37,3.65,5.48-.77,8.23-1.26c.92,6.94.75,7.42-5.33,8.54a44.93,44.93,0,0,1-9.9.64c-9-.36-14.32-8.24-10.46-16.39a34.06,34.06,0,0,1,9-11.63c10.76-8.68,22.88-14.9,37-16A25.69,25.69,0,0,1,739,390.18a10,10,0,0,1,6,12.26,30.85,30.85,0,0,1-6.27,10.45C734,418.12,733.73,417.88,728.41,412.26Z" transform="translate(-204.77 -204.46)"/><path class="cls-1" d="M370.9,293.67c1.28-.88,1.8-1.31,2.38-1.62,1.16-.64,2.36-1.21,4.05-2.07l31.38,37.52,1-.53c-.76-2.46-1.48-4.94-2.29-7.38-3.7-11.2-7.13-22.5-11.29-33.53-1.88-5-.84-7.44,4.81-8.78,6.76,21.33,13.54,42.76,20.45,64.57l-6.57,3.78C400.25,328.42,385.72,311.22,370.9,293.67Z" transform="translate(-204.77 -204.46)"/><path class="cls-1" d="M640.92,287.22c7.29,3.3,7.3,3.3,5.46,9.95s-3.66,13.28-5.49,19.92l1.12.67c5.33-4.14,10.67-8.26,16-12.43,5.63-4.42,5.61-4.44,11.42.85-8.17,6.09-16.2,12.32-24.5,18.15a46.59,46.59,0,0,0-13.62,14.3c-3.06,5.11-6.62,9.94-10.14,15.15l-6.51-4.42C632.48,332.3,635.29,309.19,640.92,287.22Z" transform="translate(-204.77 -204.46)"/><path class="cls-1" d="M359.59,735.79c-5.45-3.62-11.72-7.54-17.68-11.88a4.14,4.14,0,0,1,1.4-7.22c3.38-1.13,7.08-1.3,10.65-1.87a54.92,54.92,0,0,0,10.49-2.37c-3.91-4.51-8.63-5-13.67-5.28-6.65-.41-11.88.56-13.41,8.27a6.17,6.17,0,0,1-2.52,3.6c-1.63,1-3.67,1.38-5.54,2a53.41,53.41,0,0,1-1.52-6c-.15-1.08.86-2.38.58-3.36-1.78-6.18,1.4-8,6.79-9.07,2.89-.61,5.27-3.36,8.08-4.74a6.65,6.65,0,0,1,3.93.16c.36,4.48,4,4.12,6.71,4.33,7.45.56,13.18,4.06,18.17,9.62-3.15,6.34-10.31,4.89-16.3,8l12,6.67Z" transform="translate(-204.77 -204.46)"/><path class="cls-1" d="M589.15,335.74l-6.36-2.64c4.82-11.55,9.58-23,14.35-34.39,1.79-4.3,3.37-8.71,5.5-12.83,1.89-3.68.89-5.45-2.82-6.5a49.48,49.48,0,0,1-5.63-2.43l4.07-9.86,27,11.29-4.16,9.84-10.31-4C603.62,301.35,596.45,318.4,589.15,335.74Z" transform="translate(-204.77 -204.46)"/><path class="cls-1" d="M308.71,506h10.18v25.62l-65,2.61v-6.84l54.8-2.21Z" transform="translate(-204.77 -204.46)"/><path class="cls-1" d="M312.53,588c-1.36-2.56-2.2-4.16-3.19-6,2.61-1.41,5.25-2.46,7.39-4.14,1.19-.94,2.54-3.69,2.06-4.33-1.1-1.48-3.28-3-5-3-3.09.08-6.18,1.16-9.2,2.08-13.66,4.16-27.3,8.42-41.49,12.81-.62-2.13-1.2-4.11-2-6.7,12.28-3.77,24.24-7.71,36.37-11a165,165,0,0,1,21.38-4.13c4.65-.63,8.58,1.38,10.37,6.06s.25,8.88-4.58,12C321,584.1,316.85,585.82,312.53,588Z" transform="translate(-204.77 -204.46)"/><path class="cls-1" d="M397.11,357.17l-5.46,4.41L350.8,308.66l5.45-4.4Z" transform="translate(-204.77 -204.46)"/><path class="cls-1" d="M563.24,326.57l-6.58-2c5.56-21.57,11.06-42.86,16.66-64.54l6.65,1.82C574.37,283.54,568.86,304.84,563.24,326.57Z" transform="translate(-204.77 -204.46)"/><path class="cls-1" d="M254,491.16v-6.57c6.66.46,13.05.81,19.41,1.38,14.34,1.3,28.67,2.77,43,4,2.55.22,4,.61,4,3.64s-1.46,3.72-4,3.47Z" transform="translate(-204.77 -204.46)"/><path class="cls-1" d="M257,559.79c-.45-2.69-.75-4.45-1.13-6.76l65.37-11.43c.47,2.1.93,4.08,1.52,6.7Z" transform="translate(-204.77 -204.46)"/><path class="cls-1" d="M703.55,496.54c-.42-2.41-.75-4.33-1.16-6.74l66.22-6.51c.36,2.06.71,4.07,1.16,6.73Z" transform="translate(-204.77 -204.46)"/><path class="cls-1" d="M685.58,359.4c-.06,6-4,9.93-10,9.79a9.84,9.84,0,0,1-9.87-9.8,10.64,10.64,0,0,1,10.15-10.25C681.52,349.15,685.63,353.47,685.58,359.4Z" transform="translate(-204.77 -204.46)"/><path class="cls-1" d="M527.69,566.33c-4-.29-8-.33-11.9-1-1.94-.32-4.64-1.33-5.28-2.78s.53-4.18,1.77-5.59c9.13-10.37,18.32-20.69,27.79-30.75,10.27-10.91,21.29-21.14,31.19-32.38,6.62-7.51,14.3-11.39,24-12,10.61-.64,21.21-1.59,31.83-2a15.79,15.79,0,0,1,8.35,2.5c1.3.81,2,3.69,1.74,5.5-.13,1.09-2.44,2.58-3.9,2.74-22,2.33-37.81,14.36-50.05,31.93-2.41,3.45-4.36,7.22-2.07,11.61s6.6,4.83,10.81,4.31c8.86-1.09,17.78-2.1,26.49-4a27.48,27.48,0,0,0,17.06-11.39c1.27-1.81,3.39-3.71,5.42-4.12,2.44-.49,6.58-.3,7.47,1.14,1.16,1.9.87,6.11-.58,7.88a34.29,34.29,0,0,1-10,8c-20.55,11.33-42.76,18.55-65.35,24.2-14.55,3.63-29.69,4.93-44.57,7.27Z" transform="translate(-204.77 -204.46)"/><path class="cls-1" d="M416.84,420.53H608v54.38H597.49c-.1-1.86-.28-3.64-.28-5.41,0-11-.09-22,0-33,0-3.19-1-4.37-4.31-4.35-24,.11-48,.15-72,0-4.12,0-4.52,1.78-4.51,5.14.11,22,.06,44,.06,66V509H504.8v-5.46c0-22.16-.06-44.33.07-66.49,0-3.61-.88-5-4.73-4.93-23,.15-46,.07-69,.09-1.15,0-2.29.17-4.32.33v75l-10-1Z" transform="translate(-204.77 -204.46)"/><path class="cls-1" d="M386.34,504.69c7.14,4.69,14.87,5.19,23,3.95a6.53,6.53,0,0,1,5.17,1.9C426.46,525.26,442,534,460.21,538.08A30.6,30.6,0,0,0,480.64,536c18.15-8.69,34.1-20.7,50.06-32.72,5.71-4.3,11.11-9,16.9-13.22,2.19-1.59,5.14-3.26,7.6-3.06a12.16,12.16,0,0,1,7.65,4.11c2.06,2.52.68,5.42-1.73,7.9-17.5,18-34.83,36.25-52.32,54.32a32.29,32.29,0,0,1-38.12,6.16c-27.61-14.75-54.73-30.36-80.11-48.8a61.7,61.7,0,0,1-5.25-4.74Z" transform="translate(-204.77 -204.46)"/><path class="cls-1" d="M598.56,558.81h10a101.5,101.5,0,0,1-1.16,10.36c-6.49,30.07-20,56-48.42,70.27-31.43,15.79-64,17.62-95.58-.13-22.73-12.76-34.76-33.94-41.25-58.33-2.84-10.68-3.83-21.86-5.58-32.82a34.56,34.56,0,0,1,0-5.11h8.86c2,11.32,3.32,22.56,6.12,33.41,6.45,25,19.16,45.84,43.44,57.3C511.45,651,567.18,639.63,587.6,592,592.08,581.55,594.81,570.35,598.56,558.81Z" transform="translate(-204.77 -204.46)"/><path class="cls-1" d="M572.27,376.36c-4.07-3.36-8.77-2.94-10.48,1.54-1.47,3.84-1.73,8.14-2.51,12.17,4.18-.57,7.39-1.39,10.59-1.34,4.76.07,9.38,4,10.27,8.11a11.34,11.34,0,0,1-5.88,12.62c-10.3,5.73-22.13-.67-22.77-12.48a47.77,47.77,0,0,1,.54-11.9c2-9.77,13.39-15,22.32-10.65,3.61,1.77,5.18,5.6,2.79,7.46-1.38,1.07-3.67,1.32-5.53,1.27-.91,0-2.67-1.94-2.49-2.38C569.72,379.26,571,378,572.27,376.36Zm-12.16,21.76c.45,2.91.4,5.87,1.46,8.36a6.75,6.75,0,0,0,4.61,3.56c1.32.13,3.88-2,4.11-3.35a46.58,46.58,0,0,0,.47-12.64c-.17-1.56-2.71-4-4.14-4-1.83,0-4,1.86-5.32,3.45C560.35,394.6,560.46,396.59,560.11,398.12Z" transform="translate(-204.77 -204.46)"/><path class="cls-1" d="M483.49,409c1,2.37,3.61,2.09,6.18,1.18,4.69-1.68,7.07-8,6.18-16.12-.94.32-1.81.67-2.7.92-4.89,1.38-9.48,1.36-13.47-2.45-3.46-3.3-3.91-7.34-2.41-11.45,1.9-5.22,6.27-7.62,11.58-8.07,9.86-.84,16.56,6.08,16.64,17.29a24.2,24.2,0,0,1-5.87,16.54c-4.33,5-13.89,6.65-19.09,2.87-1.49-1.09-2.44-3.39-2.86-5.3-.19-.87,1.44-3,2.33-3.08,1.95-.12,3.95.73,5.93,1.19C485.23,404.35,484.52,406.23,483.49,409Zm1.66-23.76c0,1-.39,2.25.07,2.94,1.42,2.12,2.86,5.23,4.85,5.75,3.18.82,5.53-1.52,5.84-5.17.08-1,.45-1.94.57-2.92.77-6.33-1.53-11.18-5.33-11.31C487.05,374.35,484.77,378.37,485.15,385.2Z" transform="translate(-204.77 -204.46)"/><path class="cls-1" d="M541.13,411.35h-13.6l2.91-9.92H514.29c-.33-1-.61-1.43-.5-1.59,5.91-8.62,11.69-17.32,17.94-25.69,1-1.29,4.06-1,6.82-1.58,0,7.22.28,13.52-.08,19.79-.29,4.93.42,8.33,7.21,7.17-2.42,2.78-8.32,0-7,5.63A40.4,40.4,0,0,0,541.13,411.35Zm-25.26-11.84c4.54,0,7.68.12,10.8-.08.93-.06,2.56-1,2.58-1.56.2-5.25.12-10.51.12-15.77l-1.19-.12Z" transform="translate(-204.77 -204.46)"/><path class="cls-1" d="M442.21,377.36l16.19-4.14V380c0,8,.28,16-.1,23.94-.24,5.07,1.06,7.77,6.6,7.26H442.58c1.66-.66,4.49-.93,5.46-2.41,1.1-1.68.64-4.45.68-6.75.07-4.66,0-9.31,0-14C448.74,379.72,448.74,379.72,442.21,377.36Z" transform="translate(-204.77 -204.46)"/><path class="cls-1" d="M505.13,577.35h11V607h-11Z" transform="translate(-204.77 -204.46)"/><path class="cls-1" d="M608.19,532H597.55V509.38h10.64Z" transform="translate(-204.77 -204.46)"/></svg>